<svg width="16" height="17" viewBox="0 0 16 17" fill="none" xmlns="http://www.w3.org/2000/svg">
<g id="dislike">
<path id="shape (Stroke)" fill-rule="evenodd" clip-rule="evenodd" d="M6.5663 14.3337C6.65931 14.3337 6.74553 14.2842 6.79257 14.2036L6.79667 14.1966L9.85417 9.23982L9.85417 2.66699L4.13029 2.66699C4.00747 2.66699 3.90125 2.75225 3.87464 2.87199L3.87232 2.88239L2.17235 9.52213C2.1412 9.68307 2.26454 9.83366 2.42951 9.83366L5.02083 9.83366C5.45495 9.83366 5.89423 9.9787 6.21404 10.2908C6.55025 10.619 6.70612 11.0889 6.60609 11.5953L6.12686 14.021C6.09486 14.1829 6.2188 14.3337 6.38375 14.3337L6.5663 14.3337ZM11.1875 2.66699L11.1875 8.76223L13.5498 8.76223C13.6936 8.76223 13.8106 8.64622 13.8117 8.50226C13.8117 8.50226 13.8117 8.50225 13.8117 8.50226L13.8542 2.93085C13.8553 2.78555 13.7377 2.66699 13.5923 2.66699L11.1875 2.66699ZM10.8929 10.0956L7.93945 14.8837C7.65257 15.3688 7.13068 15.667 6.5663 15.667L6.38375 15.667C5.37861 15.667 4.62399 14.7486 4.81881 13.7625L5.29804 11.3368C5.30657 11.2937 5.30104 11.274 5.29971 11.2697C5.29823 11.2649 5.29497 11.257 5.28274 11.245C5.25485 11.2178 5.17182 11.167 5.02083 11.167L2.42951 11.167C1.40886 11.167 0.650896 10.2217 0.872281 9.22559L0.87459 9.21518L2.57573 2.57094C2.74227 1.84721 3.38674 1.33366 4.13029 1.33366L13.5923 1.33366C14.478 1.33366 15.1942 2.05528 15.1875 2.941C15.1875 2.94099 15.1875 2.94102 15.1875 2.941L15.145 8.51243C15.1383 9.38863 14.4261 10.0956 13.5498 10.0956L10.8929 10.0956Z" fill="#FF4242"/>
</g>
</svg>
