<svg width="16" height="17" viewBox="0 0 16 17" fill="none" xmlns="http://www.w3.org/2000/svg">
<g id="like">
<path id="shape (Stroke)" fill-rule="evenodd" clip-rule="evenodd" d="M9.45324 2.66634C9.36022 2.66634 9.274 2.71578 9.22696 2.79638L9.22286 2.80341L6.16536 7.76018V14.333H11.8892C12.0121 14.333 12.1183 14.2477 12.1449 14.128L12.1472 14.1176L13.8472 7.47785C13.8783 7.31692 13.755 7.16634 13.59 7.16634H10.9987C10.5646 7.16634 10.1253 7.0213 9.80549 6.70916C9.46928 6.38101 9.31341 5.91106 9.41344 5.40475L9.89267 2.97903C9.92467 2.81708 9.80073 2.66634 9.63578 2.66634H9.45324ZM4.83203 14.333V8.23777H2.46972C2.32593 8.23777 2.20893 8.35378 2.20782 8.49774C2.20782 8.49774 2.20782 8.49775 2.20782 8.49774L2.16537 14.0692C2.16426 14.2144 2.2818 14.333 2.42721 14.333H4.83203ZM5.12663 6.90444L8.08008 2.11634C8.36696 1.63124 8.88885 1.33301 9.45324 1.33301H9.63578C10.6409 1.33301 11.3955 2.25139 11.2007 3.23746L10.7215 5.66317C10.713 5.70634 10.7185 5.72596 10.7198 5.73026C10.7213 5.73506 10.7246 5.74304 10.7368 5.75498C10.7647 5.7822 10.8477 5.83301 10.9987 5.83301H13.59C14.6107 5.83301 15.3686 6.77825 15.1473 7.77441L15.1449 7.78481L13.4438 14.429C13.2773 15.1528 12.6328 15.6663 11.8892 15.6663H2.42721C1.54152 15.6663 0.825291 14.9447 0.832079 14.059C0.832079 14.059 0.832079 14.059 0.832079 14.059L0.874528 8.48757C0.881245 7.61137 1.59339 6.90444 2.46972 6.90444H5.12663Z" fill="#03CEA4"/>
</g>
</svg>
