<svg width="16" height="16" viewBox="0 0 16 16" fill="none" xmlns="http://www.w3.org/2000/svg">
<g id="danger" clip-path="url(#clip0_41833_253)">
<g id="Vector">
<path fill-rule="evenodd" clip-rule="evenodd" d="M8.00008 1.99935C4.68637 1.99935 2.00008 4.68564 2.00008 7.99935C2.00008 11.3131 4.68637 13.9993 8.00008 13.9993C11.3138 13.9993 14.0001 11.3131 14.0001 7.99935C14.0001 4.68564 11.3138 1.99935 8.00008 1.99935ZM0.666748 7.99935C0.666748 3.94926 3.94999 0.666016 8.00008 0.666016C12.0502 0.666016 15.3334 3.94926 15.3334 7.99935C15.3334 12.0494 12.0502 15.3327 8.00008 15.3327C3.94999 15.3327 0.666748 12.0494 0.666748 7.99935Z" fill="#FF4242"/>
<path d="M8.66675 10.666C8.66675 11.0342 8.36827 11.3327 8.00008 11.3327C7.63189 11.3327 7.33341 11.0342 7.33341 10.666C7.33341 10.2978 7.63189 9.99935 8.00008 9.99935C8.36827 9.99935 8.66675 10.2978 8.66675 10.666Z" fill="#FF4242"/>
<path fill-rule="evenodd" clip-rule="evenodd" d="M8.00008 9.08268C7.63189 9.08268 7.33341 8.7842 7.33341 8.41602V4.66602C7.33341 4.29783 7.63189 3.99935 8.00008 3.99935C8.36827 3.99935 8.66675 4.29783 8.66675 4.66602V8.41602C8.66675 8.7842 8.36827 9.08268 8.00008 9.08268Z" fill="#FF4242"/>
</g>
</g>
<defs>
<clipPath id="clip0_41833_253">
<rect width="16" height="16" fill="white"/>
</clipPath>
</defs>
</svg>
