<svg width="17" height="16" viewBox="0 0 17 16" fill="none" xmlns="http://www.w3.org/2000/svg">
<path fill-rule="evenodd" clip-rule="evenodd" d="M4.83268 6.33301C5.20087 6.33301 5.49935 6.63148 5.49935 6.99967L5.49935 14.4997C5.49935 14.8679 5.20087 15.1663 4.83268 15.1663C4.46449 15.1663 4.16602 14.8679 4.16602 14.4997L4.16602 6.99967C4.16602 6.63148 4.46449 6.33301 4.83268 6.33301Z" fill="white"/>
<path fill-rule="evenodd" clip-rule="evenodd" d="M4.83268 0.833008C5.20087 0.833008 5.49935 1.13148 5.49935 1.49967V3.49967C5.49935 3.86786 5.20087 4.16634 4.83268 4.16634C4.46449 4.16634 4.16602 3.86786 4.16602 3.49967V1.49967C4.16602 1.13148 4.46449 0.833008 4.83268 0.833008Z" fill="white"/>
<path fill-rule="evenodd" clip-rule="evenodd" d="M1.16602 4.83301C1.16602 3.72844 2.06145 2.83301 3.16602 2.83301H6.49935C7.60392 2.83301 8.49935 3.72844 8.49935 4.83301V5.66634C8.49935 6.77091 7.60392 7.66634 6.49935 7.66634H3.16602C2.06145 7.66634 1.16602 6.77091 1.16602 5.66634V4.83301ZM3.16602 4.16634C2.79783 4.16634 2.49935 4.46482 2.49935 4.83301V5.66634C2.49935 6.03453 2.79783 6.33301 3.16602 6.33301H6.49935C6.86754 6.33301 7.16602 6.03453 7.16602 5.66634V4.83301C7.16602 4.46482 6.86754 4.16634 6.49935 4.16634H3.16602Z" fill="white"/>
<path fill-rule="evenodd" clip-rule="evenodd" d="M12.166 11.833C12.5342 11.833 12.8327 12.1315 12.8327 12.4997V14.4997C12.8327 14.8679 12.5342 15.1663 12.166 15.1663C11.7978 15.1663 11.4993 14.8679 11.4993 14.4997V12.4997C11.4993 12.1315 11.7978 11.833 12.166 11.833Z" fill="white"/>
<path fill-rule="evenodd" clip-rule="evenodd" d="M12.166 0.833008C12.5342 0.833008 12.8327 1.13148 12.8327 1.49967V8.99967C12.8327 9.36786 12.5342 9.66634 12.166 9.66634C11.7978 9.66634 11.4993 9.36786 11.4993 8.99967V1.49967C11.4993 1.13148 11.7978 0.833008 12.166 0.833008Z" fill="white"/>
<path fill-rule="evenodd" clip-rule="evenodd" d="M8.49935 10.333C8.49935 9.22844 9.39478 8.33301 10.4993 8.33301H13.8327C14.9373 8.33301 15.8327 9.22844 15.8327 10.333V11.1663C15.8327 12.2709 14.9373 13.1663 13.8327 13.1663H10.4993C9.39478 13.1663 8.49935 12.2709 8.49935 11.1663V10.333ZM10.4993 9.66634C10.1312 9.66634 9.83268 9.96482 9.83268 10.333V11.1663C9.83268 11.5345 10.1312 11.833 10.4993 11.833H13.8327C14.2009 11.833 14.4993 11.5345 14.4993 11.1663V10.333C14.4993 9.96482 14.2009 9.66634 13.8327 9.66634H10.4993Z" fill="white"/>
</svg>
