<svg width="16" height="16" viewBox="0 0 16 16" fill="none" xmlns="http://www.w3.org/2000/svg">
<path d="M14.662 14.6673L14.6654 14.6668V9.77677C14.6654 7.38454 14.1504 5.54176 11.3537 5.54176C10.0093 5.54176 9.10703 6.27954 8.7387 6.97899H8.69981V5.7651H6.04814V14.6668H8.80925V10.259C8.80925 9.09843 9.02925 7.97621 10.4665 7.97621C11.8826 7.97621 11.9037 9.30065 11.9037 10.3334V14.6673H14.662Z" fill="#787A80"/>
<path d="M1.55203 5.76565H4.31647V14.6673H1.55203V5.76565Z" fill="#787A80"/>
<path d="M2.93314 1.33398C2.04925 1.33398 1.33203 2.05121 1.33203 2.9351C1.33203 3.81898 2.04925 4.55121 2.93314 4.55121C3.81703 4.55121 4.53425 3.81898 4.53425 2.9351C4.5337 2.05121 3.81648 1.33398 2.93314 1.33398Z" fill="#787A80"/>
</svg>
