<svg width="20" height="20" viewBox="0 0 20 20" fill="none" xmlns="http://www.w3.org/2000/svg">
<path fill-rule="evenodd" clip-rule="evenodd" d="M10.0012 2.70866C8.39034 2.70866 7.0845 4.0145 7.0845 5.62533C7.0845 7.23616 8.39034 8.54199 10.0012 8.54199C11.612 8.54199 12.9178 7.23616 12.9178 5.62533C12.9178 4.0145 11.612 2.70866 10.0012 2.70866ZM5.41784 5.62533C5.41784 3.09402 7.46987 1.04199 10.0012 1.04199C12.5325 1.04199 14.5845 3.09402 14.5845 5.62533C14.5845 8.15663 12.5325 10.2087 10.0012 10.2087C7.46987 10.2087 5.41784 8.15663 5.41784 5.62533Z" fill="#17696A"/>
<path fill-rule="evenodd" clip-rule="evenodd" d="M5.08789 12.7087C4.51012 12.7087 4.05853 12.99 3.87522 13.3942C3.6215 13.9536 3.39175 14.6196 3.33754 15.2513C3.3133 15.5337 3.43104 15.7418 3.59327 15.8426C4.4509 16.3753 6.43816 17.292 10.0012 17.292C13.5642 17.292 15.5514 16.3753 16.4091 15.8426C16.5713 15.7418 16.689 15.5337 16.6648 15.2513C16.6106 14.6196 16.3808 13.9536 16.1271 13.3942C15.9438 12.99 15.4922 12.7087 14.9145 12.7087H5.08789ZM2.35736 12.7058C2.86398 11.5887 3.99526 11.042 5.08789 11.042H14.9145C16.0071 11.042 17.1384 11.5887 17.645 12.7058C17.936 13.3474 18.2482 14.2099 18.3254 15.1088C18.3956 15.9273 18.0554 16.7819 17.2885 17.2583C16.1606 17.959 13.8675 18.9587 10.0012 18.9587C6.13484 18.9587 3.84176 17.959 2.71381 17.2583C1.94692 16.7819 1.60672 15.9273 1.67698 15.1088C1.75413 14.2099 2.06637 13.3474 2.35736 12.7058Z" fill="#17696A"/>
</svg>
